<?xml version="1.0" encoding="UTF-8" standalone="no"?><svg width="200" height="400" viewBox="0,0 200,400" xmlns="http://www.w3.org/2000/svg"><g transform="rotate(-90 200,200)"><rect x="0" y="0" width="400" height="200" style="fill:#ffffff" /><text x="100" y="88" font-size="14" fill="black" text-anchor="start" transform="rotate(90 99.3,83.8)">F</text><text x="300" y="88" font-size="14" fill="black" text-anchor="start" transform="rotate(90 299.3,83.8)">P</text><text x="16.7" y="168" font-size="14" fill="black" text-anchor="start" transform="rotate(90 16,163.8)">6</text><text x="50" y="168" font-size="14" fill="black" text-anchor="start" transform="rotate(90 49.3,163.8)">5</text><text x="83.3" y="168" font-size="14" fill="black" text-anchor="start" transform="rotate(90 82.6,163.8)">4</text><text x="116.7" y="168" font-size="14" fill="black" text-anchor="start" transform="rotate(90 116,163.8)">3</text><text x="150" y="168" font-size="14" fill="black" text-anchor="start" transform="rotate(90 149.3,163.8)">2</text><text x="183.3" y="168" font-size="14" fill="black" text-anchor="start" transform="rotate(90 182.6,163.8)">1</text><text x="216.7" y="168" font-size="14" fill="black" text-anchor="start" transform="rotate(90 216,163.8)">6</text><text x="250" y="168" font-size="14" fill="black" text-anchor="start" transform="rotate(90 249.3,163.8)">5</text><text x="283.3" y="168" font-size="14" fill="black" text-anchor="start" transform="rotate(90 282.6,163.8)">4</text><text x="316.7" y="168" font-size="14" fill="black" text-anchor="start" transform="rotate(90 316,163.8)">3</text><text x="350" y="168" font-size="14" fill="black" text-anchor="start" transform="rotate(90 349.3,163.8)">2</text><text x="383.3" y="168" font-size="14" fill="black" text-anchor="start" transform="rotate(90 382.6,163.8)">1</text><line x1="187.5" y1="18" x2="112.5" y2="78" style="stroke:black; stroke-width:1" /><line x1="212.5" y1="18" x2="287.5" y2="78" style="stroke:black; stroke-width:1" /><line x1="89.6" y1="98" x2="27.1" y2="158" style="stroke:black; stroke-width:1" /><line x1="93.8" y1="98" x2="56.3" y2="158" style="stroke:black; stroke-width:1" /><line x1="97.9" y1="98" x2="85.4" y2="158" style="stroke:black; stroke-width:1" /><line x1="102.1" y1="98" x2="114.6" y2="158" style="stroke:black; stroke-width:1" /><line x1="106.3" y1="98" x2="143.8" y2="158" style="stroke:black; stroke-width:1" /><line x1="110.4" y1="98" x2="172.9" y2="158" style="stroke:black; stroke-width:1" /><line x1="289.6" y1="98" x2="227.1" y2="158" style="stroke:black; stroke-width:1" /><line x1="293.8" y1="98" x2="256.3" y2="158" style="stroke:black; stroke-width:1" /><line x1="297.9" y1="98" x2="285.4" y2="158" style="stroke:black; stroke-width:1" /><line x1="302.1" y1="98" x2="314.6" y2="158" style="stroke:black; stroke-width:1" /><line x1="306.3" y1="98" x2="343.8" y2="158" style="stroke:black; stroke-width:1" /><line x1="310.4" y1="98" x2="372.9" y2="158" style="stroke:black; stroke-width:1" /></g></svg>